/* XPM */
static char *ea7b84056b06467a85fb02daaf77b70b3pNMFBrkxgCVMaHH[] = {
/* columns rows colors chars-per-pixel */
"30 32 253 2 ",
"   c #F3F3F3",
".  c gray95",
"X  c #F4F4F4",
"o  c #E9E9E9",
"O  c #DFDFDF",
"+  c #F6F6F6",
"@  c #F8F8F8",
"#  c #9E9E9F",
"$  c #444445",
"%  c #444444",
"&  c #454546",
"*  c gray28",
"=  c gray27",
"-  c gray96",
";  c gray78",
":  c gray60",
">  c #9B9B9B",
",  c #5F6060",
"<  c #313131",
"1  c #78797A",
"2  c #848486",
"3  c #838485",
"4  c #858586",
"5  c #555556",
"6  c #262627",
"7  c #252627",
"8  c #616162",
"9  c gray61",
"0  c #C6C6C6",
"q  c #F1F1F1",
"w  c gray91",
"e  c gray52",
"r  c #272828",
"t  c gray21",
"y  c #373738",
"u  c #51514F",
"i  c #E6E3D5",
"p  c #FFFCEC",
"a  c #FDFAEB",
"s  c #FFFDED",
"d  c #9B9889",
"f  c #373424",
"g  c #3A3727",
"h  c #312F28",
"j  c #282828",
"k  c #252525",
"l  c #8D8D8D",
"z  c gray87",
"x  c #373737",
"c  c #3B3B3C",
"v  c #C1C2C5",
"b  c #D7D8DE",
"n  c #DBD8C6",
"m  c #F7DC40",
"M  c #FCDD29",
"N  c #FCDD2A",
"B  c #FCDE2B",
"V  c #EBCC1A",
"C  c #D9BB09",
"Z  c #7E6F1A",
"A  c #24252B",
"S  c #272727",
"D  c #909090",
"F  c #DADADB",
"G  c #3F3F3F",
"H  c #4F5050",
"J  c #8D8C82",
"K  c #EEE298",
"L  c #FFF19C",
"P  c #FEEE95",
"I  c #FCE769",
"U  c #FCE562",
"Y  c #FCE563",
"T  c #FDE764",
"R  c #D3BC3A",
"E  c #B49C0F",
"W  c #F6D204",
"Q  c #BEA50E",
"!  c #71641D",
"~  c #323026",
"^  c #656566",
"/  c #AEAEAE",
"(  c #EEEEEE",
")  c #D0D0D0",
"_  c #3E3E3E",
"`  c #919293",
"'  c #FFFBE1",
"]  c #FCDC20",
"[  c #FCD700",
"{  c #FBF7DE",
"}  c #FBFBF7",
"|  c #FBF9EE",
" . c #FEFCF1",
".. c #90908C",
"X. c #3F3B23",
"o. c #E2C207",
"O. c #FFDA02",
"+. c #E3C307",
"@. c #433F25",
"#. c #262728",
"$. c #414141",
"%. c #DADADA",
"&. c gray64",
"*. c #4C4C4C",
"=. c gray16",
"-. c #909195",
";. c #FEFBE4",
":. c #FCDC21",
">. c #FBF7E0",
",. c #FCEE9B",
"<. c #FCDF34",
"1. c #FFE137",
"2. c #918330",
"3. c #403C25",
"4. c #403C26",
"5. c #252629",
"6. c gray26",
"7. c #DDDDDD",
"8. c gray55",
"9. c gray18",
"0. c #69696A",
"q. c #B8B28E",
"w. c #FEEE91",
"e. c #FCDA16",
"r. c #FBF8E1",
"t. c #FCEA7F",
"y. c #FCD600",
"u. c #FFD900",
"i. c #917F15",
"p. c #FEDA02",
"a. c #EBCA06",
"s. c #857519",
"d. c #4D4722",
"f. c #38383A",
"g. c #9A9A9A",
"h. c gray25",
"j. c #E1E2E5",
"k. c #FDEB81",
"l. c #FCD703",
"z. c #FCD701",
"x. c #FCF8E1",
"c. c #FCEA81",
"v. c #917F17",
"b. c #FDD902",
"n. c #FED902",
"m. c #928016",
"M. c #27282B",
"N. c #8E8E8F",
"B. c #E2E3E6",
"V. c #8E8E8E",
"C. c #E2E2E6",
"Z. c #E5E5E8",
"A. c #FFEC80",
"S. c #FCD702",
"D. c #FCD803",
"F. c #FFDC02",
"G. c #948216",
"H. c #27272A",
"J. c #8C8C8D",
"K. c #3A3A3A",
"L. c #B5B5B7",
"P. c #E3D686",
"I. c #FCDF36",
"U. c #FCD80A",
"Y. c #F5D204",
"T. c #D1B40B",
"R. c #786B1B",
"E. c #2D2E30",
"W. c gray32",
"Q. c gray65",
"!. c #2E2E2F",
"~. c #979694",
"^. c #FEF9D7",
"/. c #FBE981",
"(. c #FBD600",
"). c #907F17",
"_. c #4A4524",
"`. c #2B2B28",
"'. c LightGray",
"]. c gray94",
"[. c #9A9A9B",
"{. c #939395",
"}. c #FFFCE3",
"|. c #FCDC1E",
" X c #FDD800",
".X c #EBCB10",
"XX c #827E68",
"oX c #706B49",
"OX c #71651B",
"+X c #72661C",
"@X c #4B4524",
"#X c #FFDB02",
"$X c #E5C407",
"%X c #7B7B7C",
"&X c #D7D4C0",
"*X c #F6DD4A",
"=X c #FDDC1B",
"-X c #E7C605",
";X c #665B1B",
":X c #504921",
">X c #524B23",
",X c #524B22",
"<X c #695E1E",
"1X c #E8C706",
"2X c #BBA20F",
"3X c #3D3A26",
"4X c #3D3D3E",
"5X c #676768",
"6X c #2C2C2C",
"7X c #4D4D4C",
"8X c #E4E3DB",
"9X c #FEEB7A",
"0X c #F1CF05",
"qX c #F0CD05",
"wX c #F0CE05",
"eX c #F2CF05",
"rX c #998615",
"tX c #313029",
"yX c #292827",
"uX c #888889",
"iX c gray92",
"pX c gray39",
"aX c #2F2F2F",
"sX c #707072",
"dX c #7B744C",
"fX c #8C7B16",
"gX c #EFCD05",
"hX c #BEA40E",
"jX c #7B6D1B",
"kX c #524B21",
"lX c #262628",
"zX c gray63",
"xX c #4A4A4B",
"cX c #36373A",
"vX c #3B3826",
"bX c #C1A70E",
"nX c #D8BA09",
"mX c #D6B90A",
"MX c #26262A",
"NX c #3A3A3C",
"BX c #4E4E4E",
"VX c #4B4B4B",
"CX c #9F9F9F",
"ZX c gray89",
"AX c #E6E6E6",
"SX c #272725",
"DX c #363326",
"FX c #383525",
"GX c #302F27",
"HX c gray15",
"JX c #858686",
"KX c #99999A",
"LX c white",
/* pixels */
"  .                                           . . . . . .   ",
".                 .   X X X X X X X X   .                 . ",
"                .   o O O O O O O O O o                     ",
"            . X + @ # $ % % % % & * = # @ + X .             ",
"        .   - ; : > , < 1 2 3 4 5 6 7 8 9 : 0 X .           ",
"          q w e r t y u i p a s d f g h j k l - .           ",
"        X z 8 x c v b n m M N B V C C Z A S D @   .         ",
"      . X F G H J K L P I U Y T R E W Q ! ~ ^ / o           ",
"        ( ) _ ` ' ] [ ] { } |  ...X.o.O.+.@.#.$.%.X         ",
"    . - &.*.=.-.;.:.[ :.>.,.<.1.2.3.o.O.o.4.5.6.7.+ .       ",
"    . - 8.9.0.q.w.e.[ :.r.t.y.u.i.4.o.p.a.s.d.f.g.)   .     ",
"    . - 8.h.j.k.[ l.z.:.x.c.[ O.v.4.o.b.l.n.m.M.j N.- .     ",
"    . - 8.h.B.k.[ l.z.:.x.c.[ O.v.4.o.b.l.O.m.M.S V.- .     ",
"    . - 8.h.B.k.[ l.z.:.r.c.[ O.v.4.o.b.l.O.m.M.S V.- .     ",
"    . - 8.h.C.k.[ l.z.:.r.c.[ O.v.4.o.b.l.O.m.M.S V.- .     ",
"    . - 8.h.B.k.[ l.z.:.x.c.[ O.v.4.o.b.l.O.m.M.S V.- .     ",
"    . - 8.h.B.k.[ l.z.:.x.c.[ O.v.4.o.b.l.O.m.M.S V.- .     ",
"    . - 8.h.C.k.[ l.z.:.x.c.[ O.v.4.o.b.l.O.m.M.S V.- .     ",
"    . - 8.$.Z.A.y.S.z.:.x.c.[ O.v.4.o.b.D.F.G.H.k J.- .     ",
"    . - l K.L.P.I.U.[ :.x.c.[ O.v.4.o.n.Y.T.R.E.W.Q.- .     ",
"    . - V.=.!.~.^.] [ :.>./.(.n.).4.o.O.+._.`.$.'.].  .     ",
"    . X ) [.t {.}.|. X.XXXoXOX+X@X4.o.#X$X@.7 h.%.X .       ",
"      . + 7.h.%X&X*X=X-X;X:X>X,X,X<X1X1X2X3X4X5XO X         ",
"        X %.$.6X7X8X9X(.0XqXwXwXwXeXn.rXtXyXuXiXq           ",
"          o / pXaXsXdXfXgX#XO.#XhXjXZ kXlXk l +   .         ",
"        .   @ zXxXxXcXvXbXnXmXC Z A MXNXBXVXCX- .           ",
"              iXZXAX4 SXDXFXFXFXGXj HXJXAXZXiX  .           ",
"            .     - ; KX[.[.[.[.[.> KX; -     .             ",
"                  . X + + + + + + + + X .                   ",
"                                                            ",
"  .                                                     .   ",
".   . . . . . . . . . . . . . . . . . . . .               . "
};
