/* XPM */
static char *result[] = {
/* columns rows colors chars-per-pixel */
"95 75 58 1 ",
"  c yellow",
". c white",
"X c #000001",
"o c #E6E6E6",
"O c #E4E4E4",
"+ c gray84",
"@ c #E9E9E9",
"# c #E2E2E2",
"$ c #070704",
"% c #ECECEC",
"& c #FEFE00",
"* c gray85",
"= c gray87",
"- c gray98",
"; c #EEEEEE",
": c #FCFC00",
"> c #D2D2D2",
", c #F6F6F6",
"< c gainsboro",
"1 c #F4F4F4",
"2 c gray95",
"3 c gray94",
"4 c #CECECE",
"5 c #C1C1C1",
"6 c gray78",
"7 c #FDFDFD",
"8 c gray",
"9 c gray88",
"0 c #FFFF08",
"q c #BBBBBB",
"w c gray80",
"e c gray77",
"r c gray79",
"t c #343308",
"y c #141410",
"u c #343434",
"i c #47460D",
"p c #242418",
"a c #F8F807",
"s c #989898",
"d c #EDEC0C",
"f c #7F7F7D",
"g c #72710F",
"h c #5D5D5D",
"j c #8C8B14",
"k c #B5B316",
"l c #CBC916",
"z c #AAAAAB",
"x c #6D6D6E",
"c c #A3A30C",
"v c #484849",
"b c #838215",
"n c #8A8A88",
"m c #DCDB0D",
"M c #5C5B10",
"N c #9A9815",
"B c #848246",
"V c #76762E",
/* pixels */
".7r4.-6>.,e*.35<.%59.o5o.#5%.<53.*e1.>e-.4r7.ww.764.-e>.1e*.35=.%5#.o5o.95%.<53.+e,.>6-.4r7.w4.",
"3;<<3%*=2%*92@+#2@+#1o+O1O+o2#+@29*%2=*%3<*%;**;%*<3%*=2%*92@+#2o+O1O+o2O+@2#*@29*%2=*%3<<;3<<3",
"ew.7e4.-5>.15*.38=.@8#.O8@.98;.*81.+5-.4e7.>4..4>..64.,5+.18*.;8=.@8O.#8@.=8;.*51.>5-.4e7.wr..r",
"<=;%<=;%<9;@<#;@<#3o<O3O*o3#<o3#<@;9<@;=<%;68**55*>w#;@<9;@<#3@<O3o<O3O*o3#<@3#<@;9<%;=<%;==%%=",
"..6w.7e4.,5+.28<.%89.oqo.#8%.<83.+5,.>5-.wwuX$$$$$Xf.8>.,5+.38<.%8#.oqo.98%.<82.+5,.>e7.w6..6w.",
"%%=9%@=9%@=#%@<#%o<O%o<O%O<o%O<@%#=@%#=@%=ouXXXXXXXx-*9%@=#%@<O%o<O%o<O%O<o%#<@%#=@%9=@%9=@%=9%",
"ew.7e4.-5>.18*.38=.@q#.Oq@.=q;.*81.>5-.4e7.uXXXXX$Xh9.-5>.18*.;q9.@qO.#q@.<8;.*8,.>5-.4e..r6..6",
"9#@@9#@@9#@o9O@o9O@o9O%O9O%O9o@O9o@#9@@9=o3uX$$$$$Xx3o@=#@o9O@o9O@o9O%O9o%O9o@O9o@#9@@#9@@9#@@9",
"..ew.754.,8+.28<.%q9.oqo.9q%.<83.+8,.>quppykdmmmmmdjypyx.q+.38<.%q#.Oqo.9q%.<82.+8,.457.we..6w.",
"@o##@o##@o#O@o#O@o#O@O#O@O#o@O#o@O#ooo*$XXXl       jXXXu29O@o#O@o#O@O#O@O#o@O#o@O#o@O#o@##o@O#o",
"er..e4.-5>.18*.38=.@q#.Oq@.=q;.*81.>87-yXXXl ::::a0jX$Xu=.18*.;q=.@qO.#q@.<83.*8,.>5-.4e..r6..6",
"oOooooOOoooOooOooOoooOOOooOooOOoooooO@<yXXXl :   : jX$Xv2#OooOooOoooOOOooOooOOooooooOOoooOooOoo",
"..ew.754.,8+.28<.%q9.oqo.9q%.<q3.+8,.>qyXXXl :   : jX$Xv.q+.3q<.%q#.Oqo.9q%.*82.+8,.457.we..6w.",
"##@o##@o#O@o#O@o#O@o#O@O#o@O#O@O#o@O9@<yXXXl :   :0jX$Xv3Oo#O@o#O@o#O@O#o@O#O@O#o@O#o@##o@##oo#",
"er.7e4.-5>.18*.3q<.@q#.Oq@.=q;.*81.4q-,yX$Xl :   : jX$Xu<.3q*.;q=.@qO.#q@.<q;.*81.>5-.we..r6..6",
"@@99@@9#@o9#@o9O%o=O%O=O%O=o%O9o@##-71#$XXXl :   :0bXXXv.%1-o9O%o=O%O=O%O=o%#9o@#9@@#9@@99@@9#@",
"..6w.754.,8+.28<.%q9.oqo.#q%.<82.*zxfxhjjjbd &   : lbjjBxhhs;8<.%q#.oqo.9q%.<82.+8,.457.w6..6w.",
"=9%@=9%@=#%@=#%@=O%o=O%O<o%O=o%#<2eXXXXa    &     &    kXXXy#%o<O%o=O%O<o%O=o%#=@%#=@%9=@%99%%9",
"ew..e4.-5>.18*.%q*.oq9.9qo.<q%.+q-*X$Xyd ::&       ::a kX$Xp+.%q<.Oq9.=qo.<q%.+q2.>5-.4e..r6..6",
";%==;%<9;@<9;@o3.,o2.1o1.2o,.3o,.,eXXXyd &           : kXXXp,@3.1o2.1o1.2o,.3o,.%<@;9<%;=<%%==%",
"..6w.7e>.,5+.;nnzsfszsfszsfszsfszsxXXXyd &           : kXXXysfszsfszsfszsfszsfszs6,.>e7.w6..6w.",
"<<3%<=3%*=3@=wXXXXXXXXXXXXXXXXXXXXXXXXyd &           : kXXX$XXXXXXXXXXXXXXXXXXXXu-=*%3<<%;<<;;<",
"ew.764.-5>.265yX$X$$$$$$$$$$$$$$$$$XXXyd &           : kX$XX$$$$$$$$$$$$$$$$$X$Xv.>5-.467.wr..r",
"2;*<2%*<2%+=,*$XXXXXXXXXXXXXXXXXXXXXXX$d &           : kXXXXXXXXXXXXXXXXXXXXXXXXu#@2<*;2<*;3*<3",
".764.-e>.,5+.O$XXXptttttttttttttttttttid &           : lptttttttttttttttttttpXXXu41.>e-.w6..rw.",
"+*23+<1;+<1%*wyXXXm                                                        0NX$Xu7<+;1<+32**23*",
"64.76>.,e+.2reyXXXl ::&&&&&&&&&&&&&&&&&&&&&         &&&&&&&&&&&&&&&&&&&&&:a NX$Xu.>e,.467.ww.7w",
",2+*,3><,;><7<$XXXm                  &            &     &              &  & NXXXu=%,<>3,*+21+*1",
".7r4.-6>.1e+.#yyyyladda               :dddda       adddd                add:NXy$v42.>6-.4r77w4.",
">+,2>*-3><-;4<3=q>u$y$k :           & dp$yyl :   :0NXy$M0:            :0gXyXx7w8O-<>3-*>1,++11+",
"r4.-r>.,6+.2e*.3rOuXXXk :           & dyXXXl :   :0jXXXi0:            :0gX$Xh.<r1.+6,.>r-.4w7-w",
"-1>+-24*-34<7%w=7%pX$Xk a&&         & dyXXXl :   : jX$Xi0:          &:a0gX$Xh=@-<43-*42-+>,,>+,",
".-w>.,r+.16*.36<.;pXXXk0000&        & dyXXXl :   : jX$Xi0:         &00 0gXXXh*%.*61.+r,.>w-7w>7",
"4>-,4+724*73w<.%w9*qs5hptpN :       & dyXXXl :   : jX$Xi0:        :0gptpn*qs>.<w37*427+4,->>,,>",
"w>7,w>.1r*.36<.%69.2w7vXXXb :       & dyXXXl :   :0jX$Xi0:        :0tXXXs.o>2.<63.+r1.>w,7>4--4",
"7,4>71w+.2w*.;r=.%6=73vX$Xb a::     & dyX$Xl :   : jX$Xi0:      ::a0iX$Xf*O.<r;.*w2.+w17>4--4>-",
"7,4>7,w+.2w*.;r=.%r#.1uXXXb0 00:    & d$XXXl :   :0bXXXi0:     &0  0tXXXf<o.=r;.*w2.+w17>4,-4>-",
"w>7,w>.1r+.36<.%69.@e@enfsBMMMN0:    0accccd &   & mNcNk0&     agMMMnzsfr.=6%.<62.+r1.>w,744--4",
"4>-,4+72w*73w<.%w9.@r#.1>.fXXXi0:          &&     &     &    & ayXXXq.3*;.9w%.<w37*w27+4,->>-,>",
".-w>.,r>.26*.36<.%e9.o5#.%xX$XM0:      ::::&       :::::     & apX$Xz49.=e%.<63.*61.>r,.4w-7w47",
"-1>+-24*-34<7;4=7@w#7owO-2xX$XM0:                            & apXXXz*#7#w@79w%7<43-*42-+>,,>+,",
"r4.-r>.,6+.2e<.;e=.@e#.O8-fX$XM0:                            & apXXXq.9e@.=e;.<e2.+6,.>r-.4w7-w",
">+,2>*,3><-;>=-%497@4O7Ow-fX$XM0:                            & apXXXq.#4@794%-=4;-<>3,*>1,++11+",
".7r4.-6>.1e+.3e<.%59.o8#.%xX$XM0:                            & apX$Xzw9.95%.<e3.+e1.>6-.4r7.w4.",
"12+*13><,;>=,%>9-@>#-O<27.xXXXi0:                            & ayXXXz;;.o>@,9>%,=>;,<>31*+22+*2",
"6w.76>.,e+.15*.;5=.@8@+zsqfiitb0:                             0aMiiis5zn>.=5;.*51.>e-.467.wr.7r",
"+*2;+<1;+<1%>=,@>#,o42vXXXb0   &                                   0iXXXn.=>@,9>%1<+;1<+;2**33*",
".76w.-e>.,5+.25<.%89.2vX$Xb a::                                 :::0iX$Xf>@.<52.+5,.>e-.w6..rw.",
"2;*<2;*<2%+=1@+#1@+#22vX$Xb :                                     :0iX$XfoO19+%2=+%2=*;2<*;3*<3",
"6w.764.-e>.15*.38=.@q2hX$Xb :                                     :0iX$Xs.<8;.*51.>e-.467.wr..r",
"<<3%<=3%*=3@*92@*#2o+2vX$Xb :                                     :0iX$Xn.=*@29*%3=*%3=<%;<<;;<",
"..6w.7e>.,5+.28<.%89.2vX$Xb :                     &               :0iX$Xf4@.<82.+5,.>e7.w6..6w.",
";%<=;%<9;@<9;@<#3o<o%1vX$Xb :                                     :0iX$Xn;O;#<@;9<@;9<%;=<%%==%",
"ew.7e4.-5>.18*.38=.o83hX$Xb :             &aaaaaaaa:              :0iX$Xs.*5%.*81.>5-.4e..r6..6",
"=9%@=9%@=#%@=#%o=ovypycdmmd              &0iypppppyb :              dmmdVypyx-9=@%#=@%9=@%99%@9",
"..6w.754.,8+.28<.3yXXXk                  &0tXXXXXXXg :              &  &gXX$v>;.+8,.457.w6..6w.",
"@@9#@@9#@@9#@@9O@@pX$Xk ::&        :::::::0tX$X$X$Xg a::::::        &:a0gX$Xh3#@#9@@#9@@#9@@##@",
"ew.7e4.-5>.18*.38=uX$Xk :        & 0      0tXXXXXXXg0     00&         :0gX$Xx.+81.>5-.4e..r6..6",
"OO@oOOooOO@oOO@o#@pX$Xk :       : miiiiiiiisqsszzszfiiiiiiiM: &       :0gX$Xh,##o@OOooOOooOOooO",
"..ew.754.,8+.28<.3pX$Xk :       : lXXXXXXXX+.>+..43nXXXXXXXya &       :0gX$Xh4;.+8,.457.we..6w.",
"OOooOOoOOOooOO##9OpX$Xk : ::::::a l$$$$$$$Xq%9###=2fX$$$$$Xpa:a:::::& :0gX$Xh2=9#oOOooOOooOOOoO",
"er..e4.-5>.18*..43pXXXc ::        mXXXXXXXXs4..6r..xXXXXXXXy0        &:0MXXXh.o>..>5-.we..r6..6",
"@o##@o##@o##@=fxhxjjjbm :0kgggggggVnnfxnnfx>%##oo9@5fffnnxfnggggggggm :0kbjjBxxhn@Oo##o@##oo##o",
"..ew.754.,8+.OXXXXm    &:0gXXXXXXXp..#>..=+..66..ew..>O..423XXXXXXXXk :&   0NXXXpw1.457.we..6w.",
"9#@@9#@@9#@oO>yX$$l aaa:a0bX$$$$$XuO<Oo==OO9#@@9#@@9=oO<9O@e$$$$$$$Xk a:aaa NX$Xu299@@#9@@##@@#",
"ew..e4.-5>.1e5yXXXm      0bXXXXXXXp*5-.4e7.w6..6w.7e4.-5>.-zXXXXXXXXl       cX$Xu.>5-.4e..r6..6",
"%@99%@=9%@=93+$XXXjcccccccVhhhvhhvx%%9=@%9=@%99%@=9%@=9%@<o<hvhhhvhhjcccccckMX$Xu@o%9=@%9=@%=9%",
"..6w.7e4.,5+.O$XXXXXXXXXXXx..%4..@4,.>5-.we..rr..e4.-5>.,8+..4%.-43.uXXXXXXXXXXXuw1.>57.w6..6w.",
"<=;%<=;@<9;@94yXXX$$$$$$$Xf3>O%=*o%9<@;=<%;=<%%<=;%<9;@<9;@*=%O*9%9OvX$$$$$$XX$Xu,=<%;=<%;==%%=",
"ew.7e4.-5>.265$XXXXXXXXXXXf1q;.*81.+5,.4e7.w6..6w.7e4.,5+.28*.;89.OwuXXXXXXXXXXXu.>5-.4e7.r6..6",
"3;<<3%*=3%*=1<uuuuuuuuuuupn2;#*@29*%3=*%3<<%;<<;;<<3%*=3@*92@*#2o*#-hpuuuuuuuuuph9@3=*%3<<;;<<;",
".76w.-e>.,5+.2r#.2ro.%r%.@e@.<83.*5,.>e-.467.rr.764.-e>.15*.38<.%8#.%r%.or2.#r,.<5,.>e-.w6..rw.",
"*<3;*<2%+=1%+92@+92O+#2#+O1#+@19+%2=+%2<*;2<*33*<2;*<2%+=1%+91@+#1o+O2#+o29+@2=+@2=+%2<*;3<*3;*",
"64.76>.,e+.1e*.;5=.@5#.O5@.95%.<e2.+e,.>6-.4w..w4.-6>.,e+.2e<.;59.@5O.#5@.=5;.*e1.+e,.>67.ww.7w",
"13*<1;+<1%+=,%>9,@>O,o>o,O>@,9>%,=+%1<+;1<*32**23*<1;+<1%+=,@>#,@>O,o>o,#>@,9>%,=+%1<+;1<*32**2"
};
