/* XPM */
static char *c80262b61c1b4e71a0cfaebc3218e822ti0mmX1dP2FnmJWr[] = {
/* columns rows colors chars-per-pixel */
"24 24 51 1 ",
"  c #008C00",
". c #AAD20F",
"X c #67B108",
"o c #4FA806",
"O c #073801",
"+ c #A8D00E",
"@ c #ACD30F",
"# c #3F5E1D",
"$ c #47A606",
"% c #349F04",
"& c #80BF0B",
"* c #9DCB0D",
"= c #6AAC08",
"- c #028D00",
"; c #0C9001",
": c #AFD60F",
"> c #7CBD0B",
", c #A4CD0D",
"< c #3B5C1D",
"1 c #8DB20C",
"2 c #97A499",
"3 c #EBEAEB",
"4 c #038E00",
"5 c #61870A",
"6 c #9BC20C",
"7 c #4E7021",
"8 c #C2C7C5",
"9 c #6AB509",
"0 c #94C80D",
"q c #3EA205",
"w c #017700",
"e c #53AB07",
"r c #529506",
"t c #709C09",
"y c #016A00",
"u c #79B70A",
"i c #349E04",
"p c #367E04",
"a c #315421",
"s c #6C9608",
"d c #76A409",
"f c #558D07",
"g c #86C10B",
"h c #298703",
"j c #006900",
"k c #408E05",
"l c #C5C9C7",
"z c #607558",
"x c #426908",
"c c #4C6643",
"v c #788776",
/* pixels */
"a<###<<<<##############<",
"at==u6666u=============r",
"aoX;q.@@.oeq-4444-;qi%er",
"<6.%%+...o09      -$XX,1",
"<6+%%+...o09      4eXX*1",
"<6+%%+...o09      -oXX*1",
"<6+%%+...o09      -$XX*1",
"<6+%%+...o09      4eXX01",
"<6+%%+...o09      -oXX*1",
"<6@%%@@@@e09------4$X9,1",
"ad1hh1111kdrwwwwwwwrrrds",
"vcOOOOOOOOOOOOOOOOOOOOOz",
"32xtfyfttspspjyyyyppss#l",
"325:g;&::,e+$ 444-%9>+78",
"325:&;>@.*o,$     qX&,78",
"325:&;>@.*o,$     qX>,78",
"325:&;>@.*o,$     iXu,78",
"325:&;>@.*o,$     qX&,78",
"325:&;>@.*o,$     qX&,78",
"325:&;>@.*o,$     iXu,78",
"325:&;>@.*o,$     qX&,78",
"325:&;>@.*o,$     qX>,78",
"325:&;>@.*o,$     iXu,78",
"325:&;>@.*o,$     $Xg,78"
};
