/* XPM */
static char *_ff0cda2ea7e423bf523eb403835e0fbOFt3hEoSeeKAVX2T[] = {
/* columns rows colors chars-per-pixel */
"32 25 33 1 ",
"  c #70C8A0",
". c #72C9A2",
"X c #73CAA3",
"o c #71C9A1",
"O c #72CAA2",
"+ c #71C8A1",
"@ c #6FC8A0",
"# c #70C8A1",
"$ c #6FC79F",
"% c #6BC69E",
"& c #6BC59E",
"* c #6BC59D",
"= c #6EC79F",
"- c #6AC59D",
"; c #6DC79F",
": c #6DC69E",
"> c #6CC69E",
", c #73C9A2",
"< c #76CBA4",
"1 c #75CAA3",
"2 c #74CAA3",
"3 c #72C9A1",
"4 c #73CAA2",
"5 c #71C8A0",
"6 c #71C9A2",
"7 c #6DC79E",
"8 c #6FC7A0",
"9 c #74CAA2",
"0 c #6DC69F",
"q c #69C59D",
"w c #74CAA4",
"e c #69C49C",
"r c white",
/* pixels */
"                                ",
" .X oX oXo X. O. .X oX++Xo X. OX",
"                                ",
"                                ",
" .O oX oXo Xo O. .X oX++Xo X. .X",
"  +  +  +  +  ++  +  +  +  +  ++",
"                                ",
" .. oO +X+ Oo .. .. oO +Xo Oo ..",
" oo +o  o  o+ oo oo +o  o  oo oo",
"                                ",
"@@      .#$@     o. $      .o@@ ",
"%& $*= +. -; :%  o.=-@ %;  .o%> ",
" ,< =@     12$=     o<3=$     4<",
" 5+   ==   +5   ;$   +   @;@  5+",
"=>@;-$:>6o:7 *>@%=O >$$-==%#.=> ",
"=:@ +<3 oo;; @,15 6 :$  14 oo=: ",
" ++$ 35 *> o =+3 $-=5o@$3o >- ++",
" .O%>o#;=  X#-8.@:$ oX;*+o=;@ .X",
"     .+>=     oO=%@     ..>>    ",
"    @-;       =-@       %>      ",
">>  ==@oX#%; $== .X=%$ ==$ X.>> ",
"=@4$-=    ;o.>%    $=,5*:    = 4",
" 32+       94       o23       ,2",
" @ =:@>*  @@ ;=@-05 @ @>$=-@  @ ",
">q@=% @8XO-% >: $ w@e=$%$ $.X>-@"
};
