/* XPM */
static char *_539cfde32fc4b09b820c2f92179a2e7fr2yTCCAvM4af4q1[] = {
/* columns rows colors chars-per-pixel */
"32 32 132 2 ",
"   c #CF2F00",
".  c #D72600",
"X  c #D82600",
"o  c #D02F00",
"O  c #D92902",
"+  c #C53700",
"@  c #CE3000",
"#  c #C83904",
"$  c #D03102",
"%  c #DC3306",
"&  c #D43B06",
"*  c #DC3509",
"=  c #DB3D1A",
"-  c #8F6700",
";  c #876F00",
":  c #8B6C00",
">  c #916700",
",  c #9A6101",
"<  c #916901",
"1  c #9D6C06",
"2  c #877000",
"3  c #887001",
"4  c #957406",
"5  c #957609",
"6  c #9C7519",
"7  c #947E1A",
"8  c #9D781E",
"9  c #A1790C",
"0  c #D2451A",
"q  c #DC401E",
"w  c #E0410D",
"e  c #DE5536",
"r  c #DE5638",
"t  c #E04A21",
"y  c #F57F2C",
"u  c #95801D",
"i  c #A1821F",
"p  c #9F8D37",
"a  c #A18321",
"s  c #A18E37",
"d  c #A18E38",
"f  c #EC862B",
"g  c #E38F2C",
"h  c #F5802C",
"j  c #E5902D",
"k  c #EF922F",
"l  c #F78C32",
"z  c #F98C33",
"x  c #EF9331",
"c  c #F19432",
"v  c #FC9737",
"b  c #FD9837",
"n  c #FE9838",
"m  c #EE9D45",
"M  c #EF9F49",
"N  c #F79345",
"B  c #F89446",
"V  c #FA9F48",
"C  c #FCA24D",
"Z  c #FAAC62",
"A  c #DBD5BC",
"S  c #EDC6BD",
"D  c #E4CDBC",
"F  c #E7DAC3",
"G  c #E8DAC3",
"H  c #F2D2C3",
"J  c #F5DEC8",
"K  c #EFDAD7",
"L  c #EEDBD5",
"P  c #EFDBD8",
"I  c #F0DBD6",
"U  c #F0DBD7",
"Y  c #F0DDD8",
"T  c #F0DDD9",
"R  c #F0DEDA",
"E  c #F0DFDC",
"W  c #F0DEDB",
"Q  c #F5E0CB",
"!  c #E6E3D6",
"~  c #E7E3D6",
"^  c #E6E3D7",
"/  c #E7E3D7",
"(  c #E6E3D5",
")  c #E8E3D5",
"_  c #E7E4D8",
"`  c #E6E4D9",
"'  c #E7E5D9",
"]  c #E7E5DB",
"[  c #E7E6DB",
"{  c #E8E5DA",
"}  c #E8E5DB",
"|  c #E8E6DB",
" . c #E9E6DB",
".. c #E9E6DC",
"X. c #E9E7DD",
"o. c #E9E6DB",
"O. c #F2E7DB",
"+. c #F2E7DC",
"@. c #F3E7DC",
"#. c #F4E7DC",
"$. c #F2E5DC",
"%. c #F3E9DF",
"&. c #F4E8DC",
"*. c #F4E8DE",
"=. c #F4E9DE",
"-. c #F4E9DE",
";. c #F5E9E0",
":. c #F4EAE0",
">. c #F4EAE1",
",. c #F5EAE0",
"<. c #F1F1EF",
"1. c #F1F1EF",
"2. c #F1F1F0",
"3. c #F2F0F0",
"4. c #F3F1F0",
"5. c #F3F1F1",
"6. c #F2F2F1",
"7. c #F2F2F3",
"8. c #F3F2F3",
"9. c #F2F3F3",
"0. c #F3F3F3",
"q. c #F4F2F2",
"w. c #F2F3F4",
"e. c #F2F3F5",
"r. c #F3F3F5",
"t. c #F3F4F5",
"y. c #F2F4F6",
"u. c #F3F4F6",
"i. c #F3F6F7",
"p. c #F4F4F6",
"a. c #F4F4F7",
"s. c #F3F3F3",
/* pixels */
"0.0.0.0.0.0.0.0.t.T q X X X X X X X X X X q I t.t.t.t.t.0.0.0.0.",
"0.0.0.0.0.0.0.0.E S = X X X X X X X X X X = S T I I I T 0.0.0.0.",
"0.0.0.0.0.0.t.T r = O X X X X X X X X X X O = q = = = e T t.0.0.",
"0.0.0.0.0.0.t.L 0   @ @ @ @ @ $ % * * % $ $ % * = = = e T t.0.0.",
"0.0.0.0.0.0.a.! 8 > > > > > > 1 f z z f 1 1 f B H P L T 0.0.0.0.",
"0.0.0.0.0.0...A 7 3 4 4 3 3 4 9 c n n x 4 4 x C Q :.&.:.0.0.0.0.",
"0.0.0.0.r.{ d 7 3 4 g g 4 4 g c v n n x 4 4 x n C C C Z :.t.0.0.",
"0.0.0.0.t.! 7 ; 2 4 c c 4 4 g c v n n c 9 9 g c v v v C J :.0.0.",
"0.0.0.0.r.! u ; 2 4 c c 4 3 4 9 c n n v c j 9 9 c n n n C Z %.r.",
"0.0.0.0.r.! u ; 2 4 g j 9 4 4 9 c n n v c g 4 4 g c x c V Z %.r.",
"0.0.0.0.t.! 7 ; ; 3 4 9 g x x c v n n c 9 4 3 3 4 4 4 i F :.0.0.",
"0.0.0.0.r.{ d 7 u 7 5 9 c n n n n n n c 9 4 4 4 4 5 7 p ` t.0.0.",
"0.0.0.0.0.0.` ! ` G m c n n n n n n n n c c x x k m F ` 0.0.0.0.",
"0.0.0.0.0.0.t.0...G m c x c l l c x x x c c C C C Z :.t.0.0.0.0.",
"0.0.0.0.0.0.a.{ d 7 5 4 4 1 & & 1 4 4 4 4 a F :.&.:.q.r.0.0.0.0.",
"0.0.0.0.0.0.{ A 7 ; 2 2 2 >     > 2 2 ; - 6 A ` ! ! ! ` <.0.0.0.",
"0.0.0.0.a.{ d 7 3 3 3 3 2 >     < 2 2 < + # 6 u u u 7 s { a.0.0.",
"0.0.0.0.{ A 7 ; 3 3 3 3 2 > @ o , < < , o   > 2 ; ; ; 7 A { <.0.",
"0.0.r.` d 7 3 2 2 2 3 3 2 <   .   @ @   .   > 2 3 3 2 3 7 s ` t.",
"0.0.r.! a 4 4 4 4 4 3 ; < , & % O X X O % & , < ; 3 4 4 4 a ) t.",
"0.0.r.+.M x x x c g 4 - + & h h % X X % h h & + - 4 g c x M O.r.",
"0.0.r.&.C n n n n c 9 1 o % h h % X X % h h % o 1 9 c n n C #.r.",
"0.0.r.&.C v n n n b c f % O % % O X X O % % O % f c b n v C +.r.",
"0.0.r.&.C v n n n v z y % X X X X X X X X X X % y z v n v C +.r.",
"0.0.r.&.C v v v n z w % O X X X X X X X X X X O % w z n v C +.r.",
"0.0.r.&.Z C C C z y % . X X X O = = O X X X X X . * N C C Z %.r.",
"0.0.0.0.&.#.&.H t % O X X X X = S S = X X X X X X = H :.#.%.0.0.",
"0.0.0.0.r.0.[ D 0   @ @ @ $ = r $.$.r = $ @ @ @   0 D [ 0.r.0.0.",
"0.0.0.0.a.{ d 7 < > > > > 6 D T 0.0.T D 6 > > > > < 7 d { a.0.0.",
"0.0.0.0...A 7 ; 2 2 2 2 2 u ! a.0.0.a.! u 2 2 2 2 2 ; 7 A { <.0.",
"0.0.r.` d 7 3 3 3 3 3 3 ; 7 ! t.0.0.t.! u ; 3 3 3 3 3 3 7 s { t.",
"0.0.t.! 7 ; 3 3 3 3 3 3 ; 7 ! t.0.0.r.! u ; 3 3 3 3 3 3 ; 7 ! a."
};
