/* XPM */
static char *_0e4b3a42d6d4a29c2852549a95f9600cPGBurOhFQBCNbin[] = {
/* columns rows colors chars-per-pixel */
"32 32 80 1 ",
"  c None",
". c #020304",
"X c black",
"o c #040404",
"O c #1E0C04",
"+ c #1A0B04",
"@ c #030101",
"# c #040201",
"$ c #1B0B04",
"% c #030100",
"& c #E0561A",
"* c #E2561B",
"= c #C34C18",
"- c #180A04",
"; c #C74D18",
": c #E1561B",
"> c #E2571B",
", c #C14A17",
"< c #170903",
"1 c #020304",
"2 c #FF621D",
"3 c #E0561B",
"4 c #1F0D05",
"5 c #E4571B",
"6 c #FF631D",
"7 c #DE551A",
"8 c #1B0A03",
"9 c #DF561A",
"0 c #E1561A",
"q c #C34B18",
"w c #C64D18",
"e c #1C0B04",
"r c #010100",
"t c #020100",
"y c #190A04",
"u c #180A03",
"i c #010000",
"p c #020303",
"a c #1D0C04",
"s c #1F0C05",
"d c #1A0A04",
"f c #221008",
"g c #C44C18",
"h c #C54C18",
"j c #1D0B04",
"k c #C84D18",
"l c #E1581E",
"z c #210D05",
"x c #E5581B",
"c c #FF6420",
"v c #FF611D",
"b c #DD551A",
"n c #200D05",
"m c #E3571B",
"M c #FF6320",
"N c #C14B18",
"B c #DF581D",
"V c #170A04",
"C c #200F08",
"Z c #C94E19",
"A c #E4581B",
"S c #C44B17",
"D c #180903",
"F c #DC5419",
"G c #BF4A17",
"H c #160903",
"J c #010303",
"K c #220E05",
"L c #220D05",
"P c #251108",
"I c #C64C18",
"U c #170904",
"Y c #CB4E18",
"T c #E3571A",
"R c #E4591E",
"E c #C24B17",
"W c #DD561C",
"Q c #1B0B03",
"! c #1E0E07",
"~ c white",
/* pixels */
"XXXXXXXXXXXXXXXXXXXXXXXXXXXXXXXo",
"OOOOOOOOOOOOO+@#$OOOOOOOOOOOO+%o",
"&&&&&&&&&&&&*=-$;:&&&&&&&&&&>,<1",
"22222222222223$45222222222226781",
"22222222222223$45222222222226781",
"9999999999990q-$w099999999990,<1",
"eeeeeeOOeeeee-rtyeeeeeOOeeeeeuip",
"aaaaayrtyaaaaassaaaaayrtdaaaaaOf",
"3333>gyyh>3333333333>q<jk>3333&l",
"222220ea>2222222222229+zx222222c",
"vvvv29ea32vvvvvvvvvv2b+nm2vvvvvM",
"vvvv29ea32vvvvvvvvvv2b+nm2vvvvvM",
"222220ea>2222222222269+zx222222c",
"77773q-y=377777777773N<ew377777B",
"$$$$$VrrV$$$$$aa$$$$$Vit-$$$$$aC",
"444444zz4444n$tte44444zz4444n$ip",
">>>>>>>>>>>>5h-eZ5>>>>>>>>>>ASD1",
"22222222222223$45222222222222781",
"vvvvvvvvvvvv27$4>2vvvvvvvvvv2F81",
"vvvvvvvvvvvv27$4>2vvvvvvvvvv2F81",
"22222222222263$nA222222222226781",
"bbbbbbbbbbbb9NV$h9bbbbbbbbbb9G<1",
"++++++ee+++++Hir<+++++ee+++++HiJ",
"nnnnzetteznnnzKKznnnzet%aznnnzLP",
"mmmmx;y+kxmmmmmmmmmmxIUaYxmmmmTR",
"222220ea>2222222222229+zx222222c",
"vvvv29ea32vvvvvvvvvv2b+nm2vvvvvM",
"vvvv29ea32vvvvvvvvvv2b+nm2vvvvvM",
"222260ea>6222222222269+zx222222c",
"FFFF7,uyE7FFFFFFFFFF7GHeS7FFFFFW",
"8888Q<%@DQ8888888888Q<%@DQ88888!",
"                               ."
};
